# xmcd CD database file
#
# Track frame offsets:
#	150
#	21365
#	42600
#
# Disc length: 850 seconds
#
# Revision: 0
# Processed by: cddbd v1.5.1PL0 Copyright (c) Steve Scherf et al.
# Submitted via: CDex 1.51
#
DISCID=23035003
DTITLE=タイロン橋本 - WHERE DO YOU GO?
DYEAR=1994
DGENRE=Salsa
TTITLE0=Where Do You Go? (Original ver.)
TTITLE1=Where Do You Go? (English ver.)
TTITLE2=Where Do You Go? (KARAOKE ver.)
EXTD=YEAR: 1994
EXTT0=
EXTT1=
EXTT2=
PLAYORDER=
